<?xml version="1.0" standalone="no"?>
<!DOCTYPE svg PUBLIC "-//W3C//DTD SVG 20010904//EN"
 "http://www.w3.org/TR/2001/REC-SVG-20010904/DTD/svg10.dtd">
<svg version="1.0" xmlns="http://www.w3.org/2000/svg"
 width="320.000000pt" height="320.000000pt" viewBox="0 0 320.000000 320.000000"
 preserveAspectRatio="xMidYMid meet">
<metadata>
Created by potrace 1.11, written by Peter Selinger 2001-2013
</metadata>
<g transform="translate(0.000000,320.000000) scale(0.100000,-0.100000)"
fill="#000000" stroke="none">
<path d="M1445 3194 c-299 -43 -520 -122 -730 -262 -359 -240 -600 -603 -687
-1034 -32 -162 -32 -434 0 -596 116 -579 513 -1032 1067 -1219 178 -60 295
-78 505 -77 150 0 206 4 295 22 656 130 1145 619 1277 1274 32 162 32 434 0
596 -131 651 -621 1142 -1268 1272 -96 20 -386 35 -459 24z m10 -975 c26 -13
49 -29 52 -35 5 -13 -85 -174 -98 -174 -5 0 -9 4 -9 10 0 5 -14 17 -31 25 -37
20 -79 13 -107 -18 -34 -38 -424 -730 -429 -764 -5 -28 0 -38 31 -69 34 -34
40 -36 78 -30 64 10 132 44 171 84 19 20 144 228 276 462 268 471 287 497 389
526 100 29 226 -1 291 -70 29 -31 451 -774 469 -824 42 -123 -23 -279 -141
-339 -156 -79 -388 -3 -504 165 -41 58 -223 374 -223 386 0 12 101 186 108
186 4 0 63 -100 132 -223 69 -122 142 -240 163 -263 40 -44 108 -79 175 -90
38 -6 44 -4 78 30 31 31 36 41 31 69 -5 34 -395 726 -429 764 -11 12 -33 25
-49 28 -61 14 -71 1 -313 -427 -261 -459 -289 -503 -360 -557 -240 -186 -543
-97 -564 165 -2 35 1 77 8 100 13 41 415 755 456 811 26 34 77 69 133 90 53
20 157 11 216 -18z"/>
</g>
</svg>
