<?xml version="1.0" standalone="no"?>
<!DOCTYPE svg PUBLIC "-//W3C//DTD SVG 20010904//EN"
 "http://www.w3.org/TR/2001/REC-SVG-20010904/DTD/svg10.dtd">
<svg version="1.0" xmlns="http://www.w3.org/2000/svg"
 width="260.000000pt" height="260.000000pt" viewBox="0 0 260.000000 260.000000"
 preserveAspectRatio="xMidYMid meet">
<metadata>
Created by potrace 1.11, written by Peter Selinger 2001-2013
</metadata>
<g transform="translate(0.000000,260.000000) scale(0.100000,-0.100000)"
fill="#000000" stroke="none">
<path d="M1131 2590 c-170 -24 -358 -90 -501 -177 -313 -190 -526 -493 -606
-864 -26 -118 -26 -380 0 -498 59 -273 167 -474 360 -667 193 -193 394 -301
667 -360 118 -26 380 -26 499 0 187 40 318 94 465 192 250 166 428 399 523
690 45 134 57 221 57 399 -1 129 -5 180 -24 265 -111 509 -506 899 -1016 1005
-93 20 -332 28 -424 15z m57 -805 c28 -13 52 -26 52 -29 0 -4 -67 -122 -77
-135 -2 -2 -12 4 -23 14 -26 24 -76 23 -100 -1 -10 -10 -94 -151 -186 -312
-183 -320 -183 -320 -122 -365 24 -18 31 -18 79 -7 92 22 115 53 333 435 138
242 207 353 232 373 86 71 212 68 294 -7 25 -24 92 -130 196 -311 185 -323
204 -362 204 -414 0 -101 -71 -200 -163 -225 -100 -29 -241 15 -324 101 -38
39 -215 329 -216 353 0 13 76 145 84 145 4 0 51 -78 105 -172 117 -206 164
-260 245 -277 47 -10 56 -10 79 7 59 44 59 45 -124 364 -92 161 -176 302 -186
312 -11 11 -32 19 -50 19 -18 0 -39 -8 -49 -19 -11 -10 -105 -170 -210 -354
-121 -211 -208 -351 -234 -378 -84 -86 -224 -130 -324 -101 -121 33 -195 183
-148 296 8 20 92 170 186 335 175 305 199 339 271 365 54 19 118 15 176 -12z"/>
</g>
</svg>
