
<svg width="64px" height="50px" viewBox="0 0 64 50" version="1.1" xmlns="http://www.w3.org/2000/svg" xmlns:xlink="http://www.w3.org/1999/xlink">
    <!-- Generator: Sketch 48.2 (47327) - http://www.bohemiancoding.com/sketch -->
    <desc>Created with Sketch.</desc>
    <defs></defs>
    <g id="Welcome" stroke="none" stroke-width="1" fill="none" fill-rule="evenodd">
        <g id="Desktop-HD---Home" transform="translate(-77.000000, -64.000000)" fill="#FFFFFF" fill-rule="nonzero">
            <path d="M138.298399,98.6550218 C137.366812,100.797671 134.944687,104.430859 131.032023,104.430859 C127.678311,104.430859 126.094614,103.219796 126.094614,98.9344978 C126.094614,89.5254731 132.429403,76.8558952 133.36099,68.2852984 C133.733624,65.4905386 128.237263,64 124.97671,64 C123.858806,64 122.834061,64 122.368268,64.7452693 C115.660844,73.7816594 111.74818,84.588064 107.183406,93.9039301 L106.717613,93.9039301 C106.90393,87.2896652 108.860262,77.9737991 109.605531,72.0116448 C109.978166,69.3100437 105.133916,68.1921397 101.966521,68.1921397 C100.848617,68.1921397 99.8238719,68.1921397 99.3580786,68.937409 C95.6317322,75.1790393 91.4395924,83.8427948 86.874818,93.1586608 L86.5953421,93.1586608 C86.9679767,89.1528384 87.8995633,83.3770015 89.7627365,79.8369723 C90.1353712,79.0917031 86.3158661,76.3901019 82.5895197,76.3901019 C79.8879185,76.3901019 77,92.2270742 77,100.518195 C77,100.518195 77,100.518195 77,100.518195 C77,100.518195 77,100.611354 77,100.611354 C77,107.411936 79.7016012,111.417758 85.0116448,111.417758 C87.5269287,111.417758 89.1106259,110.113537 89.1106259,110.113537 C89.0174672,102.195051 94.7001456,89.7117904 98.426492,82.2590975 L99.5443959,82.2590975 C98.705968,88.8733624 98.2401747,96.7918486 98.3333333,103.778748 C98.426492,110.206696 99.4512373,113.746725 104.761281,113.746725 C107.276565,113.746725 108.860262,112.442504 108.860262,112.442504 C108.767103,104.524017 114.356623,88.7802038 119.294032,81.3275109 L120.691412,81.3275109 C119.480349,85.6128093 117.058224,94.3697234 117.058224,98.0029112 C117.058224,104.803493 119.294032,110.858806 127.491994,110.858806 C135.876274,110.858806 141,104.430859 141,100.797671 C140.906841,98.8413392 138.298399,98.6550218 138.298399,98.6550218 Z" id="Logo"></path>
        </g>
    </g>
</svg>