
<svg width="60px" height="40px" viewBox="0 0 60 40" version="1.1" xmlns="http://www.w3.org/2000/svg" xmlns:xlink="http://www.w3.org/1999/xlink">
    <!-- Generator: Sketch 48.2 (47327) - http://www.bohemiancoding.com/sketch -->
    <desc>Created with Sketch.</desc>
    <defs></defs>
    <g id="Welcome" stroke="none" stroke-width="1" fill="none" fill-rule="evenodd">
        <g id="Desktop-HD" transform="translate(-179.000000, -55.000000)" fill="#FFFFFF">
            <g id="Menu">
                <path d="M237.788119,81.5 L225.176684,59.5 C223.562006,56.683 220.669539,55 217.438189,55 C214.207836,55 211.315369,56.683 209.699694,59.5 L195.368926,84.5 C193.81106,87.218 190.934541,88.928 187.82778,88.998 C186.356629,88.944 185.62205,87.938 185.369881,87.5 C185.111732,87.049 184.594437,85.854 185.369881,84.5 L197.981316,62.5 C198.757757,61.146 200.044516,61 200.560814,61 C201.078109,61 202.364868,61.146 203.141309,62.5 L203.267892,62.721 L206.261027,57.5 C206.31485,57.406 206.377643,57.32 206.433459,57.228 C204.836721,55.813 202.784485,55 200.560814,55 C197.330461,55 194.437994,56.683 192.822319,59.5 L180.211881,81.5 C178.596206,84.317 178.596206,87.682 180.210884,90.5 C181.700973,93.1 184.279475,94.732 187.20583,94.97 C187.344373,94.99 187.485907,95 187.629434,95 L187.950376,95 C188.039084,95 188.127791,94.996 188.215502,94.988 C193.294762,94.785 197.974339,91.955 200.527923,87.5 L214.858691,62.5 C215.635132,61.146 216.921891,61 217.438189,61 C217.955484,61 219.242243,61.146 220.018684,62.5 L232.630119,84.5 C233.405563,85.854 232.887272,87.049 232.630119,87.5 C232.37795,87.938 231.642374,88.944 230.17222,88.998 C227.065459,88.928 224.18894,87.218 222.631074,84.5 L214.732108,70.721 L211.292444,76.72 L217.473074,87.5 C220.025661,91.955 224.705238,94.785 229.784498,94.988 C229.872209,94.996 229.95992,95 230.049624,95 L230.370566,95 C230.514093,95 230.655627,94.99 230.793173,94.97 C233.720525,94.732 236.299027,93.1 237.789116,90.5 C239.403794,87.682 239.403794,84.317 237.788119,81.5" id="Logo"></path>
            </g>
        </g>
    </g>
</svg>